<?xml version="1.0" encoding="UTF-8"?>
<svg version="1.1" xmlns="http://www.w3.org/2000/svg" width="128" height="128">
<path d="M0 0 C0.74636719 0.12246094 1.49273437 0.24492188 2.26171875 0.37109375 C6.66821354 1.15880344 9.67328235 2.35340379 13.5 4.75 C16.05312343 5.31506808 16.05312343 5.31506808 18.625 5.4375 C19.47320312 5.50324219 20.32140625 5.56898437 21.1953125 5.63671875 C24.03291739 5.77619424 26.48578685 5.75285461 29.28125 5.19140625 C32.80772543 4.70779979 35.50764188 5.05139191 39 5.6875 C43.25604896 6.45257547 47.18118718 6.76848279 51.5 6.75 C55.2 8.15 55.2 8.15 56.5 10.75 C58.52463255 11.40213292 58.52463255 11.40213292 60.5 11.75 C60.5 12.41 60.5 13.07 60.5 13.75 C61.82 13.75 63.14 13.75 64.5 13.75 C66.28125 15.359375 66.28125 15.359375 68 17.5 C70.54708303 20.65115141 70.54708303 20.65115141 73.58294678 23.30462646 C76.49170033 27.01500282 76.02870536 30.42931984 75.95410156 35.01660156 C75.9545837 35.96865353 75.95506584 36.92070549 75.95556259 37.90160751 C75.95257832 40.98166105 75.92212481 44.06074482 75.890625 47.140625 C75.88474344 49.04280125 75.88066299 50.94498395 75.87841797 52.84716797 C75.85745127 59.89821074 75.80160632 66.94911491 75.75 74 C75.6675 89.7575 75.585 105.515 75.5 121.75 C40.52 121.75 5.54 121.75 -30.5 121.75 C-30.005 120.265 -30.005 120.265 -29.5 118.75 C-29.43334624 117.35560336 -29.41461801 115.95830125 -29.4375 114.5625 C-29.458125 113.304375 -29.47875 112.04625 -29.5 110.75 C-30.985 111.245 -30.985 111.245 -32.5 111.75 C-32.891875 110.739375 -33.28375 109.72875 -33.6875 108.6875 C-34.86744365 105.90106031 -35.99407046 104.09990729 -37.875 101.625 C-42.88343752 94.91672914 -45.91872726 86.08157593 -46.5 77.75 C-48.48 77.09 -50.46 76.43 -52.5 75.75 C-52.5 72.45 -52.5 69.15 -52.5 65.75 C-50.52 65.255 -50.52 65.255 -48.5 64.75 C-48.4175 63.96625 -48.335 63.1825 -48.25 62.375 C-47.5 59.75 -47.5 59.75 -45.625 58.4375 C-43.5 57.75 -43.5 57.75 -40.5 57.75 C-40.40501221 57.0293335 -40.31002441 56.30866699 -40.2121582 55.56616211 C-39.765964 52.27015065 -39.2895292 48.97918423 -38.8125 45.6875 C-38.66361328 44.55376953 -38.51472656 43.42003906 -38.36132812 42.25195312 C-37.34937184 35.44605106 -36.21513785 30.86611021 -31.5 25.75 C-30.84 25.75 -30.18 25.75 -29.5 25.75 C-29.24347656 25.16863281 -28.98695312 24.58726563 -28.72265625 23.98828125 C-27.39421693 21.55634601 -25.86826187 19.91663168 -23.9375 17.9375 C-20.60726288 14.24334006 -19.87830844 11.76258685 -19.5 6.75 C-17.78691658 3.24596573 -16.78467451 1.93978301 -13.5 -0.25 C-8.84289351 -1.76862168 -4.69451288 -0.86755247 0 0 Z " fill="#547041" transform="translate(52.5,6.25)"/>
<path d="M0 0 C0.66 0 1.32 0 2 0 C6.10526716 20.34306492 3.70337945 39.12946086 -7 57 C-9.19575992 60.15319821 -11.64025114 63.04562991 -14.21484375 65.8984375 C-16.195882 67.9657019 -16.195882 67.9657019 -17 71 C-9.10354819 71.38835009 -2.49479167 69.84249959 4.96875 67.33984375 C10.06400397 66.48736857 14.70904579 68.3777502 19 71 C21.37331081 73.82999334 23.03917725 77.02723826 24.76293945 80.27832031 C27.89998194 86.15552893 31.74987217 89.90953896 37 94 C37.99 94.99 38.98 95.98 40 97 C15.25 97 -9.5 97 -35 97 C-34.505 95.515 -34.505 95.515 -34 94 C-33.93334624 92.60560336 -33.91461801 91.20830125 -33.9375 89.8125 C-33.958125 88.554375 -33.97875 87.29625 -34 86 C-35.485 86.495 -35.485 86.495 -37 87 C-37.391875 85.989375 -37.78375 84.97875 -38.1875 83.9375 C-39.36744365 81.15106031 -40.49407046 79.34990729 -42.375 76.875 C-47.38343752 70.16672914 -50.41872726 61.33157593 -51 53 C-52.98 52.34 -54.96 51.68 -57 51 C-57 47.7 -57 44.4 -57 41 C-55.02 40.505 -55.02 40.505 -53 40 C-52.9175 39.21625 -52.835 38.4325 -52.75 37.625 C-52 35 -52 35 -50.125 33.6875 C-48 33 -48 33 -45 33 C-44.690625 31.72125 -44.38125 30.4425 -44.0625 29.125 C-41.42151721 21.26404653 -35.47481277 15.13345264 -28.375 11 C-20.12953991 6.96286297 -11.95470885 5.68910739 -3 8 C-2.690625 6.865625 -2.38125 5.73125 -2.0625 4.5625 C-1 1 -1 1 0 0 Z " fill="#6C8153" transform="translate(57,31)"/>
<path d="M0 0 C-0.66 4.95 -1.32 9.9 -2 15 C-3.32 14.34 -4.64 13.68 -6 13 C-6.28875 13.721875 -6.5775 14.44375 -6.875 15.1875 C-7.55063118 16.87657795 -8.26768753 18.55112139 -9.0625 20.1875 C-10.45680912 24.37042736 -10.67681359 28.61997367 -11 33 C-11.99 32.34 -12.98 31.68 -14 31 C-19.25985601 36.97064737 -22.1879458 41.87945799 -23 50 C-25 47 -25 47 -25 45 C-27.64 47.31 -30.28 49.62 -33 52 C-39.04958176 46.57623704 -40.5751261 40.78286623 -41.2734375 32.921875 C-41.60080561 22.69791711 -39.16957578 16.10284447 -32.1875 8.625 C-23.33652889 0.37296678 -11.7880458 -2.94701145 0 0 Z " fill="#430A76" transform="translate(53,39)"/>
<path d="M0 0 C0.66 0 1.32 0 2 0 C6.12868264 20.45909701 3.59153523 38.99897519 -7 57 C-9.72425665 60.97722487 -12.65855874 64.52959083 -16 68 C-17.04027344 69.0828125 -17.04027344 69.0828125 -18.1015625 70.1875 C-22.20410668 74.11580485 -25.11019239 76 -31 76 C-33.34260643 75.7397104 -35.6817571 75.42579972 -38 75 C-35.55677759 72.35452408 -32.84359462 70.46307952 -29.875 68.4375 C-15.40133103 57.954592 -5.0691195 41.72906265 -2 24 C-2.35191406 24.94359375 -2.70382813 25.8871875 -3.06640625 26.859375 C-10.28060601 45.80844134 -20.62931186 61.98944571 -38 73 C-39.90009655 69.19980691 -39.06258522 64.99485592 -38 61 C-36.03381603 57.92506567 -33.81592304 55.32817656 -31 53 C-30.34 53 -29.68 53 -29 53 C-28.67 53.66 -28.34 54.32 -28 55 C-27.5875 53.80375 -27.175 52.6075 -26.75 51.375 C-24.65668521 45.82231054 -22.09012968 41.27222623 -17 38 C-16.505 38.495 -16.505 38.495 -16 39 C-15.90203125 38.3709375 -15.8040625 37.741875 -15.703125 37.09375 C-14.64862021 31.05761911 -12.97532864 26.35559155 -10 21 C-9.01 21.33 -8.02 21.66 -7 22 C-6.91363281 21.33355469 -6.82726563 20.66710937 -6.73828125 19.98046875 C-5.62269337 12.66262162 -3.33872339 6.58824426 0 0 Z " fill="#17B5DA" transform="translate(57,31)"/>
<path d="M0 0 C8.3484284 4.6475787 13.00027115 11.27363933 15.6875 20.3125 C16.32235233 25.77223008 16.91297082 30.96656499 14.625 36.0625 C13 38 13 38 11 39 C10.401875 38.690625 9.80375 38.38125 9.1875 38.0625 C6.6236061 36.81718011 4.81458835 36.84363398 2 37 C1.67 39.31 1.34 41.62 1 44 C-0.485 44.495 -0.485 44.495 -2 45 C-2.30495485 49.42664564 -2.30495485 49.42664564 -0.5 53.375 C-0.005 53.91125 0.49 54.4475 1 55 C-3.8508146 59.63990961 -10.63563898 60.114863 -17.0625 60.125 C-18.361875 60.08375 -19.66125 60.0425 -21 60 C-21 55.16362501 -20.18293754 54.73738381 -17 51.3125 C-4.50561676 36.51237096 -0.92805808 18.97718773 0 0 Z " fill="#340D83" transform="translate(61,43)"/>
<path d="M0 0 C0.74636719 0.12246094 1.49273437 0.24492188 2.26171875 0.37109375 C6.66821354 1.15880344 9.67328235 2.35340379 13.5 4.75 C16.05312343 5.31506808 16.05312343 5.31506808 18.625 5.4375 C19.47320312 5.50324219 20.32140625 5.56898437 21.1953125 5.63671875 C24.03291739 5.77619424 26.48578685 5.75285461 29.28125 5.19140625 C32.80772543 4.70779979 35.50764188 5.05139191 39 5.6875 C43.25604896 6.45257547 47.18118718 6.76848279 51.5 6.75 C55.2 8.15 55.2 8.15 56.5 10.75 C58.52463255 11.40213292 58.52463255 11.40213292 60.5 11.75 C60.5 12.41 60.5 13.07 60.5 13.75 C61.82 13.75 63.14 13.75 64.5 13.75 C66.28125 15.359375 66.28125 15.359375 68 17.5 C69.93562382 19.86947054 71.71847771 21.94662993 74 24 C74.495 24.5775 74.99 25.155 75.5 25.75 C75.25 28 75.25 28 74.5 29.75 C71.24021428 28.3478651 69.43708696 26.72506168 67.125 24.0625 C59.68060277 16.35072366 48.9973411 11.70032463 38.3828125 11.50390625 C36.95702516 11.4709656 35.53124406 11.43775399 34.10546875 11.40429688 C31.86511544 11.35693782 29.62478702 11.31249626 27.38427734 11.27319336 C25.2168577 11.23332124 23.04994772 11.18181559 20.8828125 11.12890625 C19.58746582 11.1038501 18.29211914 11.07879395 16.95751953 11.05297852 C11.64465747 10.58741844 7.96242818 8.55495486 3.5 5.75 C3.5 9.05 3.5 12.35 3.5 15.75 C2.51 16.245 2.51 16.245 1.5 16.75 C1.47421875 16.13511719 1.4484375 15.52023438 1.421875 14.88671875 C1.21204382 9.84844278 1.21204382 9.84844278 -1.375 5.75 C-3.60554506 4.64936401 -3.60554506 4.64936401 -6.5 3.75 C-5.84 4.74 -5.18 5.73 -4.5 6.75 C-4.02564224 10.46580247 -4.04061355 12.1101403 -6.25 15.1875 C-8.5 16.75 -8.5 16.75 -10.625 16.5625 C-11.93341635 15.99551958 -13.22456434 15.38771783 -14.5 14.75 C-14.5 15.74 -14.5 16.73 -14.5 17.75 C-16.1394208 18.79406763 -17.81243867 19.78567924 -19.5 20.75 C-27.86718802 28.1244708 -33.35992605 34.29822894 -34.91015625 45.515625 C-35.59296359 48.10215346 -36.57736594 48.96242833 -38.5 50.75 C-38.29735037 47.89173283 -38.06387081 45.04155971 -37.8125 42.1875 C-37.73225586 40.98770508 -37.73225586 40.98770508 -37.65039062 39.76367188 C-37.08379598 33.72820716 -35.50533151 30.33367431 -31.5 25.75 C-30.84 25.75 -30.18 25.75 -29.5 25.75 C-29.24347656 25.16863281 -28.98695312 24.58726563 -28.72265625 23.98828125 C-27.39421693 21.55634601 -25.86826187 19.91663168 -23.9375 17.9375 C-20.60726288 14.24334006 -19.87830844 11.76258685 -19.5 6.75 C-17.78691658 3.24596573 -16.78467451 1.93978301 -13.5 -0.25 C-8.84289351 -1.76862168 -4.69451288 -0.86755247 0 0 Z " fill="#3A462A" transform="translate(52.5,6.25)"/>
<path d="M0 0 C0.33 0 0.66 0 1 0 C-0.02109065 21.69817637 -9.25858101 41.12308167 -25.0625 55.875 C-28.83925878 59.17309693 -32.52109602 61.76054801 -37 64 C-33.7 64.66 -30.4 65.32 -27 66 C-27.14154136 68.56280208 -27.28808562 71.12515485 -27.4375 73.6875 C-27.47681641 74.40873047 -27.51613281 75.12996094 -27.55664062 75.87304688 C-27.78185678 79.66707282 -28.12839305 83.28651492 -29 87 C-30.98 87 -32.96 87 -35 87 C-34.505 85.515 -34.505 85.515 -34 84 C-33.93334624 82.60560336 -33.91461801 81.20830125 -33.9375 79.8125 C-33.958125 78.554375 -33.97875 77.29625 -34 76 C-35.485 76.495 -35.485 76.495 -37 77 C-37.391875 75.989375 -37.78375 74.97875 -38.1875 73.9375 C-39.36744365 71.15106031 -40.49407046 69.34990729 -42.375 66.875 C-47.38343752 60.16672914 -50.41872726 51.33157593 -51 43 C-52.98 42.34 -54.96 41.68 -57 41 C-57 37.7 -57 34.4 -57 31 C-55.68 30.67 -54.36 30.34 -53 30 C-52.9175 29.21625 -52.835 28.4325 -52.75 27.625 C-52 25 -52 25 -50.125 23.6875 C-48 23 -48 23 -45 23 C-44.91363281 24.12277344 -44.82726563 25.24554688 -44.73828125 26.40234375 C-43.97277611 34.96434189 -43.13125142 41.83055115 -38 49 C-36.63578969 51.72842061 -37.12192789 53.60953318 -37.4375 56.625 C-37.53933594 57.62789062 -37.64117187 58.63078125 -37.74609375 59.6640625 C-37.82988281 60.43492188 -37.91367187 61.20578125 -38 62 C-23.45219155 51.96224345 -14.11848267 40.14822917 -7 24 C-6.60167969 23.13890625 -6.20335937 22.2778125 -5.79296875 21.390625 C-2.79463787 14.51804636 -1.39639799 7.34166823 0 0 Z " fill="#2C3820" transform="translate(57,41)"/>
<path d="M0 0 C0.78503906 -0.00773437 1.57007812 -0.01546875 2.37890625 -0.0234375 C3.39791016 0.17378906 3.39791016 0.17378906 4.4375 0.375 C6.4375 3.375 6.4375 3.375 6.4375 6.375 C6.994375 6.436875 7.55125 6.49875 8.125 6.5625 C13.56009352 8.47212745 17.24239179 14.40427369 20.88671875 18.703125 C22.35100467 20.47826363 22.35100467 20.47826363 24.4375 21.375 C24.4375 22.035 24.4375 22.695 24.4375 23.375 C24.994375 23.6225 25.55125 23.87 26.125 24.125 C28.83721127 25.59106015 31.07337365 27.40489471 33.4375 29.375 C34.0975 28.055 34.7575 26.735 35.4375 25.375 C36.0975 28.015 36.7575 30.655 37.4375 33.375 C35.4375 34.375 35.4375 34.375 32.34765625 33.44140625 C31.05994431 32.95351119 29.77762832 32.45122123 28.5 31.9375 C27.828479 31.6681665 27.15695801 31.39883301 26.46508789 31.12133789 C20.07880747 28.43257776 14.81070778 24.73336921 9.4375 20.375 C8.78652344 19.90964844 8.13554688 19.44429687 7.46484375 18.96484375 C4.72479348 16.95029143 3.52550675 15.65662161 2.5 12.375 C2.44037118 9.51281651 2.7067274 7.13569651 3.4375 4.375 C0.06285976 4.1246423 0.06285976 4.1246423 -3.5625 4.375 C-5.22960346 5.87485609 -5.22960346 5.87485609 -6.5625 7.375 C-9.6042096 7.08983972 -10.95295802 6.11469465 -13.5625 4.375 C-13.624375 5.096875 -13.68625 5.81875 -13.75 6.5625 C-14.80473426 10.21350322 -16.84399926 11.79590955 -19.5625 14.375 C-19.5625 15.035 -19.5625 15.695 -19.5625 16.375 C-17.66685574 17.16711929 -15.77097629 17.95867576 -13.875 18.75 C-12.81925781 19.19085938 -11.76351562 19.63171875 -10.67578125 20.0859375 C-7.67399994 21.39685282 -7.67399994 21.39685282 -4.890625 22.14453125 C-1.50807061 23.9322907 -0.65805673 26.29059956 1 29.6875 C4.45118653 36.67754755 7.7761209 41.18426944 14.1875 45.6875 C15.66476563 46.73357422 15.66476563 46.73357422 17.171875 47.80078125 C17.91953125 48.32027344 18.6671875 48.83976562 19.4375 49.375 C18.4475 49.705 17.4575 50.035 16.4375 50.375 C8.34094713 45.68671034 2.6503798 39.06408982 -1.1875 30.6875 C-2.96770634 27.23569408 -3.95557514 25.68961003 -7.43359375 23.88671875 C-10.57757333 22.84648571 -10.57757333 22.84648571 -13.66015625 22.15625 C-16.76383624 21.32080451 -18.96666819 20.26287768 -21.5625 18.375 C-22.5625 15.375 -22.5625 15.375 -22.5625 12.375 C-21.25 10.9375 -21.25 10.9375 -19.5625 9.375 C-18.81863932 7.06511685 -18.14059297 4.73184056 -17.5625 2.375 C-13.50818308 1.21662374 -11.34437881 1.53808743 -7.5625 3.375 C-6.96115234 2.64410156 -6.96115234 2.64410156 -6.34765625 1.8984375 C-4.09942586 -0.02018362 -2.91888572 -0.02885225 0 0 Z " fill="#314325" transform="translate(80.5625,77.625)"/>
<path d="M0 0 C3.31488726 0.53465924 6.34547155 1.44603918 9.5 2.5625 C12.81212374 3.69588453 15.4676713 4.31167606 19 4 C19.99 4 20.98 4 22 4 C22.9178125 3.81566406 23.835625 3.63132812 24.78125 3.44140625 C28.30772543 2.95779979 31.00764188 3.30139191 34.5 3.9375 C38.75604896 4.70257547 42.68118718 5.01848279 47 5 C50.7 6.4 50.7 6.4 52 9 C54.02463255 9.65213292 54.02463255 9.65213292 56 10 C56 10.66 56 11.32 56 12 C57.32 12 58.64 12 60 12 C61.78125 13.609375 61.78125 13.609375 63.5 15.75 C65.43562382 18.11947054 67.21847771 20.19662993 69.5 22.25 C69.995 22.8275 70.49 23.405 71 24 C70.75 26.25 70.75 26.25 70 28 C66.74021428 26.5978651 64.93708696 24.97506168 62.625 22.3125 C55.18060277 14.60072366 44.4973411 9.95032463 33.8828125 9.75390625 C32.45702516 9.7209656 31.03124406 9.68775399 29.60546875 9.65429688 C27.36511544 9.60693782 25.12478702 9.56249626 22.88427734 9.52319336 C20.7168577 9.48332124 18.54994772 9.43181559 16.3828125 9.37890625 C15.08746582 9.3538501 13.79211914 9.32879395 12.45751953 9.30297852 C7.95814676 8.90870358 5.14117953 7.95612339 1.6875 5.0625 C0 3 0 3 0 0 Z " fill="#303D20" transform="translate(57,8)"/>
<path d="M0 0 C0.78503906 -0.00773437 1.57007812 -0.01546875 2.37890625 -0.0234375 C3.39791016 0.17378906 3.39791016 0.17378906 4.4375 0.375 C6.4375 3.375 6.4375 3.375 6.4375 7.375 C7.0975 7.705 7.7575 8.035 8.4375 8.375 C7.4475 8.375 6.4575 8.375 5.4375 8.375 C5.1075 9.695 4.7775 11.015 4.4375 12.375 C3.7775 12.375 3.1175 12.375 2.4375 12.375 C2.7675 9.735 3.0975 7.095 3.4375 4.375 C0.06285976 4.1246423 0.06285976 4.1246423 -3.5625 4.375 C-5.22960346 5.87485609 -5.22960346 5.87485609 -6.5625 7.375 C-9.6042096 7.08983972 -10.95295802 6.11469465 -13.5625 4.375 C-13.624375 5.096875 -13.68625 5.81875 -13.75 6.5625 C-14.80473426 10.21350322 -16.84399926 11.79590955 -19.5625 14.375 C-19.5625 15.035 -19.5625 15.695 -19.5625 16.375 C-17.66685574 17.16711929 -15.77097629 17.95867576 -13.875 18.75 C-12.81925781 19.19085938 -11.76351562 19.63171875 -10.67578125 20.0859375 C-7.67399994 21.39685282 -7.67399994 21.39685282 -4.890625 22.14453125 C-1.50807061 23.9322907 -0.65805673 26.29059956 1 29.6875 C4.45118653 36.67754755 7.7761209 41.18426944 14.1875 45.6875 C15.66476563 46.73357422 15.66476563 46.73357422 17.171875 47.80078125 C17.91953125 48.32027344 18.6671875 48.83976562 19.4375 49.375 C18.4475 49.705 17.4575 50.035 16.4375 50.375 C8.34094713 45.68671034 2.6503798 39.06408982 -1.1875 30.6875 C-2.96770634 27.23569408 -3.95557514 25.68961003 -7.43359375 23.88671875 C-10.57757333 22.84648571 -10.57757333 22.84648571 -13.66015625 22.15625 C-16.76383624 21.32080451 -18.96666819 20.26287768 -21.5625 18.375 C-22.5625 15.375 -22.5625 15.375 -22.5625 12.375 C-21.25 10.9375 -21.25 10.9375 -19.5625 9.375 C-18.81863932 7.06511685 -18.14059297 4.73184056 -17.5625 2.375 C-13.50818308 1.21662374 -11.34437881 1.53808743 -7.5625 3.375 C-6.96115234 2.64410156 -6.96115234 2.64410156 -6.34765625 1.8984375 C-4.09942586 -0.02018362 -2.91888572 -0.02885225 0 0 Z " fill="#2F3F24" transform="translate(80.5625,77.625)"/>
<path d="M0 0 C1.32 0 2.64 0 4 0 C4.15855469 1.0621875 4.31710937 2.124375 4.48046875 3.21875 C5.7128042 12.31006343 5.7128042 12.31006343 9.75 20.375 C12.60484139 24.21574758 12.22547087 27.2847845 11.58984375 31.8984375 C11 34 11 34 9 36 C1.14806378 21.58769932 1.14806378 21.58769932 1 13 C0.21625 12.87625 -0.5675 12.7525 -1.375 12.625 C-4 12 -4 12 -6 10 C-6 8.68 -6 7.36 -6 6 C-5.38125 5.938125 -4.7625 5.87625 -4.125 5.8125 C-1.72238859 5.171081 -1.72238859 5.171081 -0.75 2.4375 C-0.5025 1.633125 -0.255 0.82875 0 0 Z " fill="#455C37" transform="translate(8,68)"/>
<path d="M0 0 C3.53133438 0.68148558 5.10904099 2.65044052 7.2265625 5.4296875 C8.42929069 7.83514388 8.32727722 9.37965703 8.2890625 12.0546875 C8.28003906 12.87195312 8.27101563 13.68921875 8.26171875 14.53125 C8.25011719 15.15773438 8.23851563 15.78421875 8.2265625 16.4296875 C7.5665625 16.7596875 6.9065625 17.0896875 6.2265625 17.4296875 C6.14019531 16.74261719 6.05382812 16.05554687 5.96484375 15.34765625 C5.23854638 9.70752611 5.23854638 9.70752611 1.9140625 5.3671875 C-0.65378151 4.47142796 -3.08178043 3.81420994 -5.7734375 3.4296875 C-5.7734375 4.0896875 -5.7734375 4.7496875 -5.7734375 5.4296875 C-3.2984375 6.4196875 -3.2984375 6.4196875 -0.7734375 7.4296875 C-0.7734375 10.0696875 -0.7734375 12.7096875 -0.7734375 15.4296875 C-2.0934375 15.4296875 -3.4134375 15.4296875 -4.7734375 15.4296875 C-4.7734375 16.4196875 -4.7734375 17.4096875 -4.7734375 18.4296875 C-7.0834375 18.0996875 -9.3934375 17.7696875 -11.7734375 17.4296875 C-12.1034375 18.0896875 -12.4334375 18.7496875 -12.7734375 19.4296875 C-14.32373868 17.87938632 -14.01748849 16.39292749 -14.0859375 14.2421875 C-14.03373708 8.76984352 -11.84859188 5.91511595 -8.41015625 1.796875 C-5.76213938 -0.41507227 -3.32948967 -0.09760719 0 0 Z " fill="#343C27" transform="translate(88.7734375,19.5703125)"/>
<path d="M0 0 C0.33 0 0.66 0 1 0 C-0.02109065 21.69817637 -9.25858101 41.12308167 -25.0625 55.875 C-28.84776036 59.16450207 -32.43549784 61.90793651 -37 64 C-37.66 63.67 -38.32 63.34 -39 63 C-38.11699219 62.36835937 -37.23398437 61.73671875 -36.32421875 61.0859375 C-22.6714689 51.03034224 -13.82270904 39.47726873 -7 24 C-6.60167969 23.13890625 -6.20335937 22.2778125 -5.79296875 21.390625 C-2.79463787 14.51804636 -1.39639799 7.34166823 0 0 Z " fill="#3C593E" transform="translate(57,41)"/>
<path d="M0 0 C0.76038574 -0.01289063 1.52077148 -0.02578125 2.30419922 -0.0390625 C6.80729906 -0.04698875 10.38219881 0.48364492 14.625 2.1875 C13.625 5.1875 13.625 5.1875 10.5625 6.875 C9.593125 7.308125 8.62375 7.74125 7.625 8.1875 C6.820625 7.5275 6.01625 6.8675 5.1875 6.1875 C1.72366201 3.87002744 -1.2368552 3.7468469 -5.32421875 3.75390625 C-7.84821474 4.28755112 -8.63331749 5.35286253 -10.375 7.1875 C-12.9375 7.0625 -12.9375 7.0625 -15.375 6.1875 C-16.035 5.1975 -16.695 4.2075 -17.375 3.1875 C-18.695 3.1875 -20.015 3.1875 -21.375 3.1875 C-21.375 2.5275 -21.375 1.8675 -21.375 1.1875 C-14.2539534 0.40558116 -7.15938653 0.05859944 0 0 Z " fill="#A2C784" transform="translate(89.375,16.8125)"/>
<path d="M0 0 C4.55309958 0.43779804 7.67786238 0.74286073 11 4 C12.07589271 8.66747574 11.56282713 12.87434573 9.4375 17.125 C6.18515971 19.62680023 4.0000237 19.38461766 0 19 C0 15 0 15 1 12 C2.32 12 3.64 12 5 12 C5 9.36 5 6.72 5 4 C2.525 3.01 2.525 3.01 0 2 C0 1.34 0 0.68 0 0 Z " fill="#90A25A" transform="translate(83,23)"/>
<path d="M0 0 C3.53390203 0.53844041 6.89957235 1.51586885 10.3125 2.5625 C11.19550781 2.83191406 12.07851562 3.10132812 12.98828125 3.37890625 C13.65214844 3.58386719 14.31601563 3.78882812 15 4 C11.08263419 5.1700097 8.02040985 4.69584017 4 4 C3.67 4.66 3.34 5.32 3 6 C6.3 6.33 9.6 6.66 13 7 C13 7.66 13 8.32 13 9 C13.66 9.33 14.32 9.66 15 10 C10.36261432 11.41923889 6.60105414 10.43065086 2.0625 9.1875 C1.37220703 9.00896484 0.68191406 8.83042969 -0.02929688 8.64648438 C-4.07621042 7.58392982 -8.04393419 6.36821681 -12 5 C-12 4.67 -12 4.34 -12 4 C-11.21753906 3.79503906 -10.43507812 3.59007813 -9.62890625 3.37890625 C-8.61699219 3.10949219 -7.60507812 2.84007813 -6.5625 2.5625 C-5.55316406 2.29566406 -4.54382812 2.02882813 -3.50390625 1.75390625 C-1.08247999 1.24021923 -1.08247999 1.24021923 0 0 Z " fill="#667954" transform="translate(61,98)"/>
<path d="M0 0 C6.33299953 2.17131412 10.39603051 6.28896145 15 11 C16.43615967 12.43883908 17.87373404 13.87626708 19.3125 15.3125 C20.54166667 16.54166667 21.77083333 17.77083333 23 19 C22.34 19.33 21.68 19.66 21 20 C12.19335823 16.56742887 5.63671479 10.49550809 -1 4 C-0.67 2.68 -0.34 1.36 0 0 Z " fill="#7D9468" transform="translate(86,87)"/>
<path d="M0 0 C-1.97453238 4.44269785 -5.04365823 7.84676434 -8.125 11.5625 C-9.74412574 13.66736346 -10.92659295 15.58483414 -12 18 C-11.34 18.33 -10.68 18.66 -10 19 C-12.31 21.31 -14.62 23.62 -17 26 C-18.22602444 21.09590225 -17.40391038 18.28173703 -15 14 C-12.1954734 10.46915932 -9.15663254 7.21681098 -6 4 C-5.28714844 3.24203125 -4.57429688 2.4840625 -3.83984375 1.703125 C-2 0 -2 0 0 0 Z " fill="#8BAB71" transform="translate(35,26)"/>
<path d="M0 0 C6.48038465 0.72004274 10.50533672 7.67591826 14.44921875 12.328125 C15.91350467 14.10326363 15.91350467 14.10326363 18 15 C18 15.66 18 16.32 18 17 C18.5775 17.226875 19.155 17.45375 19.75 17.6875 C22.5663661 19.33038023 24.08077114 21.39533227 26 24 C22 24 22 24 20.2890625 22.42578125 C19.73992187 21.72839844 19.19078125 21.03101562 18.625 20.3125 C16.50365912 17.73788116 14.47655083 15.40446871 11.875 13.3125 C9.04161984 11.03347683 6.56858819 8.56858819 4 6 C2.35135455 4.64444707 0.68996005 3.30368347 -1 2 C-0.67 1.34 -0.34 0.68 0 0 Z " fill="#3B4B2E" transform="translate(87,84)"/>
<path d="M0 0 C0.66 0 1.32 0 2 0 C2.64453125 1.7734375 2.64453125 1.7734375 3 4 C2.07421875 5.7890625 2.07421875 5.7890625 0.6875 7.625 C-2.01621164 11.59491268 -2.83697939 15.07507163 -3.4453125 19.80078125 C-4.09547357 22.37853255 -5.08937564 23.22339311 -7 25 C-6.79735037 22.14173283 -6.56387081 19.29155971 -6.3125 16.4375 C-6.25900391 15.63763672 -6.20550781 14.83777344 -6.15039062 14.01367188 C-5.58379598 7.97820716 -4.00533151 4.58367431 0 0 Z " fill="#313F21" transform="translate(21,32)"/>
<path d="M0 0 C0.33 0 0.66 0 1 0 C1.144375 1.11375 1.28875 2.2275 1.4375 3.375 C1.78372035 6.82142047 1.78372035 6.82142047 3 9 C-3.2 15.2 -3.2 15.2 -7.75 15.375 C-12.42598883 15.36160175 -12.42598883 15.36160175 -14.7734375 13.8828125 C-16.125 12.5 -16.125 12.5 -18 10 C-17.67 9.34 -17.34 8.68 -17 8 C-14.03 8.495 -14.03 8.495 -11 9 C-11 9.99 -11 10.98 -11 12 C-6.22757682 12.52100431 -6.22757682 12.52100431 -2.125 10.5 C-0.54755736 6.99457192 -0.31908356 3.82900271 0 0 Z " fill="#505F3C" transform="translate(94,29)"/>
<path d="M0 0 C0.94875 0.04125 1.8975 0.0825 2.875 0.125 C2.875 3.095 2.875 6.065 2.875 9.125 C0.565 8.795 -1.745 8.465 -4.125 8.125 C-4.455 8.785 -4.785 9.445 -5.125 10.125 C-5.3203125 4.0703125 -5.3203125 4.0703125 -5.125 2.125 C-3.125 0.125 -3.125 0.125 0 0 Z " fill="#2D3222" transform="translate(81.125,28.875)"/>
<path d="M0 0 C8.00826446 -0.78512397 8.00826446 -0.78512397 12 2.375 C14.62794755 5.82418116 15.12324558 7.37280956 15.0625 11.625 C15.05347656 12.44226562 15.04445313 13.25953125 15.03515625 14.1015625 C15.02355469 14.72804688 15.01195313 15.35453125 15 16 C14.34 16.33 13.68 16.66 13 17 C12.91363281 16.31292969 12.82726562 15.62585937 12.73828125 14.91796875 C12.03347087 9.26156891 12.03347087 9.26156891 8.625 5 C7.75875 4.67 6.8925 4.34 6 4 C3.47868292 2.77536028 2.00745009 2.00745009 0 0 Z " fill="#354227" transform="translate(82,20)"/>
<path d="M0 0 C0 0.66 0 1.32 0 2 C1.3303125 1.938125 1.3303125 1.938125 2.6875 1.875 C6.09283024 2.00350303 7.89400888 2.69981767 11 4 C13.98382068 4.74595517 16.98712086 5.38298336 20 6 C19.67 6.66 19.34 7.32 19 8 C9.83404773 7.75763107 1.60321558 4.89264444 -7 2 C-7 1.67 -7 1.34 -7 1 C-2.25 0 -2.25 0 0 0 Z " fill="#606B4E" transform="translate(56,101)"/>
<path d="M0 0 C2.31 0 4.62 0 7 0 C7 1.65 7 3.3 7 5 C6.34 5 5.68 5 5 5 C5 8.3 5 11.6 5 15 C4.01 15.495 4.01 15.495 3 16 C2.97421875 15.39671875 2.9484375 14.7934375 2.921875 14.171875 C2.59668017 8.89464661 2.59668017 8.89464661 -0.0625 4.4375 C-0.701875 3.963125 -1.34125 3.48875 -2 3 C-1.34 3 -0.68 3 0 3 C0 2.01 0 1.02 0 0 Z " fill="#3C4A29" transform="translate(51,7)"/>
<path d="M0 0 C0 1.32 0 2.64 0 4 C-1.32 4 -2.64 4 -4 4 C-4.66 5.98 -5.32 7.96 -6 10 C-7.98 10.33 -9.96 10.66 -12 11 C-11.67 9.68 -11.34 8.36 -11 7 C-10.01 7 -9.02 7 -8 7 C-7.9175 6.21625 -7.835 5.4325 -7.75 4.625 C-7 2 -7 2 -5.125 0.6875 C-3 0 -3 0 0 0 Z " fill="#2A3520" transform="translate(12,64)"/>
<path d="M0 0 C6.625 -0.125 6.625 -0.125 10 1 C9.125 6.75 9.125 6.75 8 9 C3.33845958 7.50164772 2.13389249 4.11536409 0 0 Z " fill="#445A34" transform="translate(19,106)"/>
<path d="M0 0 C3.31488726 0.53465924 6.34547155 1.44603918 9.5 2.5625 C12.79047189 3.69411471 15.48186065 4.3404651 19 4 C19.33 4.66 19.66 5.32 20 6 C15.80614597 6.87371959 12.84408524 7.13983142 8.6875 6 C5.20986797 4.61768062 5.20986797 4.61768062 3 6 C1.5 4.6875 1.5 4.6875 0 3 C0 2.01 0 1.02 0 0 Z " fill="#2B3A19" transform="translate(57,8)"/>
<path d="M0 0 C3.46941546 0.45822468 6.67395049 0.89131683 10 2 C9 5 9 5 5.9375 6.6875 C4.968125 7.120625 3.99875 7.55375 3 8 C0.98079663 6.69593116 -1.01924973 5.36176581 -3 4 C-3 3.67 -3 3.34 -3 3 C-1.35 2.67 0.3 2.34 2 2 C1.34 1.34 0.68 0.68 0 0 Z " fill="#7E9D64" transform="translate(94,17)"/>
<path d="M0 0 C1.32 0.33 2.64 0.66 4 1 C4.1875 3.875 4.1875 3.875 4 7 C0.77208445 9.1519437 -0.28400809 9.20086443 -4 9 C-3.71125 8.443125 -3.4225 7.88625 -3.125 7.3125 C-1.9586747 4.91505355 -0.9660119 2.48403061 0 0 Z " fill="#BDD180" transform="translate(49,16)"/>
<path d="M0 0 C0.33 0 0.66 0 1 0 C0.57123232 9.11131318 -0.87037683 20.30556525 -6 28 C-7.22433825 24.53104162 -6.79679445 22.90913604 -5.25 19.625 C-2.52095008 13.29512032 -1.28330212 6.74705812 0 0 Z " fill="#437065" transform="translate(57,41)"/>
<path d="M0 0 C0.78375 0.04125 1.5675 0.0825 2.375 0.125 C2.75718767 1.78114657 3.08895102 3.44957024 3.375 5.125 C2.375 6.125 2.375 6.125 -1.1875 6.1875 C-2.321875 6.166875 -3.45625 6.14625 -4.625 6.125 C-4.625 1.71963177 -4.59063093 0.21860147 0 0 Z " fill="#D0DAA5" transform="translate(87.625,35.875)"/>
<path d="M0 0 C1.86785156 0.30550781 1.86785156 0.30550781 3.7734375 0.6171875 C5.18496094 0.86855469 5.18496094 0.86855469 6.625 1.125 C3.06534019 3.49810654 1.40537776 3.39415041 -2.8125 3.375 C-3.94558594 3.38015625 -5.07867187 3.3853125 -6.24609375 3.390625 C-9.21025691 3.13898568 -10.87813671 2.67096941 -13.375 1.125 C-8.49723372 -0.90114907 -5.17611106 -0.87896226 0 0 Z " fill="#1A2211" transform="translate(91.375,11.875)"/>
<path d="M0 0 C7.74468085 0.74468085 7.74468085 0.74468085 11 4 C11 4.66 11 5.32 11 6 C9.68 6 8.36 6 7 6 C6.67 7.65 6.34 9.3 6 11 C5.67 11 5.34 11 5 11 C5 8.69 5 6.38 5 4 C2.525 3.01 2.525 3.01 0 2 C0 1.34 0 0.68 0 0 Z " fill="#758647" transform="translate(83,23)"/>
<path d="M0 0 C0.33 0.99 0.66 1.98 1 3 C-3.70477195 7.35038653 -8.19648374 11.21431219 -14 14 C-14.66 13.67 -15.32 13.34 -16 13 C-15.01257813 12.22914062 -14.02515625 11.45828125 -13.0078125 10.6640625 C-11.71348671 9.65111188 -10.41921889 8.63808719 -9.125 7.625 C-8.47402344 7.11710937 -7.82304687 6.60921875 -7.15234375 6.0859375 C-6.52714844 5.59609375 -5.90195312 5.10625 -5.2578125 4.6015625 C-4.6817627 4.15119629 -4.10571289 3.70083008 -3.51220703 3.23681641 C-1.86533246 1.93178492 -1.86533246 1.93178492 0 0 Z " fill="#43663F" transform="translate(34,91)"/>
<path d="M0 0 C0.33 0 0.66 0 1 0 C0.67 3.63 0.34 7.26 0 11 C-1.98 11 -3.96 11 -6 11 C-4.6875 7.5625 -4.6875 7.5625 -3 4 C-2.01 3.67 -1.02 3.34 0 3 C0 2.01 0 1.02 0 0 Z " fill="#364627" transform="translate(28,117)"/>
<path d="M0 0 C1.3921875 0.2784375 1.3921875 0.2784375 2.8125 0.5625 C3.534375 0.706875 4.25625 0.85125 5 1 C4.67 2.32 4.34 3.64 4 5 C1.13275314 4.42655063 0.1385485 4.1385485 -2 2 C-2.99 2 -3.98 2 -5 2 C-5.33 3.32 -5.66 4.64 -6 6 C-6.66 6 -7.32 6 -8 6 C-7.625 3.0625 -7.625 3.0625 -7 0 C-4.28877166 -1.35561417 -2.92020777 -0.67911809 0 0 Z " fill="#2A3628" transform="translate(70,80)"/>
<path d="M0 0 C2.97 0.495 2.97 0.495 6 1 C6 2.65 6 4.3 6 6 C8.31 6 10.62 6 13 6 C13 6.33 13 6.66 13 7 C4.96498906 7.78774617 4.96498906 7.78774617 0.9375 4.5 C0.298125 3.675 -0.34125 2.85 -1 2 C-0.67 1.34 -0.34 0.68 0 0 Z " fill="#57673A" transform="translate(77,37)"/>
<path d="M0 0 C3.0625 0.1875 3.0625 0.1875 5.0625 2.1875 C3.0625 4.1875 3.0625 4.1875 0.90771484 4.32275391 C0.03840332 4.27038574 -0.8309082 4.21801758 -1.7265625 4.1640625 C-3.13808594 4.08671875 -3.13808594 4.08671875 -4.578125 4.0078125 C-5.56296875 3.94335938 -6.5478125 3.87890625 -7.5625 3.8125 C-8.55507812 3.75578125 -9.54765625 3.6990625 -10.5703125 3.640625 C-13.02674767 3.49890759 -15.48219735 3.34747723 -17.9375 3.1875 C-17.9375 2.8575 -17.9375 2.5275 -17.9375 2.1875 C-16.93847656 2.12691406 -15.93945312 2.06632813 -14.91015625 2.00390625 C-13.61980469 1.92011719 -12.32945313 1.83632812 -11 1.75 C-9.71222656 1.66878906 -8.42445312 1.58757813 -7.09765625 1.50390625 C-3.6875848 1.16247759 -3.35214728 0.21396685 0 0 Z " fill="#435331" transform="translate(98.9375,13.8125)"/>
<path d="M0 0 C2.59094622 0.35012787 4.5774211 0.73770965 6.8125 2.125 C8.63883169 5.00868162 8.18806842 7.67745793 8 11 C7.34 9.68 6.68 8.36 6 7 C4.68 7 3.36 7 2 7 C1.34 4.69 0.68 2.38 0 0 Z " fill="#81954F" transform="translate(46,10)"/>
<path d="M0 0 C5.75 1.75 5.75 1.75 8 4 C7.625 6.125 7.625 6.125 7 8 C3.2047869 6.50902342 1.38957269 4.24299151 -1 1 C-0.67 0.67 -0.34 0.34 0 0 Z " fill="#364426" transform="translate(120,28)"/>
<path d="M0 0 C5.94 0.99 5.94 0.99 12 2 C12 2.99 12 3.98 12 5 C7.71 4.34 3.42 3.68 -1 3 C-0.67 2.01 -0.34 1.02 0 0 Z " fill="#72895E" transform="translate(65,101)"/>
<path d="M0 0 C0.66 0 1.32 0 2 0 C2.6875 1.75 2.6875 1.75 3 4 C1.875 6.1875 1.875 6.1875 0 8 C-2.6875 8.75 -2.6875 8.75 -5 9 C-3.7580393 5.56072421 -2.44259716 2.74792181 0 0 Z " fill="#242C17" transform="translate(21,32)"/>
<path d="M0 0 C2 1 4 2 6 3 C3.69 5.31 1.38 7.62 -1 10 C-2.10191901 5.59232396 -1.58706842 4.1077065 0 0 Z " fill="#7D9867" transform="translate(19,42)"/>
<path d="M0 0 C-1.66751148 3.94139078 -4.22710649 6.7892812 -7 10 C-7.66 9.01 -8.32 8.02 -9 7 C-8.07347299 5.82460004 -7.13336613 4.65989423 -6.1875 3.5 C-5.66542969 2.8503125 -5.14335938 2.200625 -4.60546875 1.53125 C-3 0 -3 0 0 0 Z " fill="#658D69" transform="translate(43,83)"/>
<path d="M0 0 C2.64 0 5.28 0 8 0 C7.67 0.99 7.34 1.98 7 3 C8.98 3 10.96 3 13 3 C12.01 4.485 12.01 4.485 11 6 C8.625 5.6875 8.625 5.6875 6 5 C5.34 4.01 4.68 3.02 4 2 C2.68 2 1.36 2 0 2 C0 1.34 0 0.68 0 0 Z " fill="#7B9A62" transform="translate(68,18)"/>
<path d="M0 0 C8.19256018 -0.63019694 8.19256018 -0.63019694 11.5625 2 C12.036875 2.66 12.51125 3.32 13 4 C8.71913541 5.25907782 6.06609565 4.80715362 2 3 C1.34 2.01 0.68 1.02 0 0 Z " fill="#465634" transform="translate(82,20)"/>
<path d="M0 0 C0.66 0.33 1.32 0.66 2 1 C1.58578031 5.83256305 -0.46413986 7.82679218 -4 11 C-4.66 9.68 -5.32 8.36 -6 7 C-4.7934375 6.6596875 -4.7934375 6.6596875 -3.5625 6.3125 C-2.716875 5.879375 -1.87125 5.44625 -1 5 C-0.10613836 2.45224694 -0.10613836 2.45224694 0 0 Z " fill="#33452A" transform="translate(65,81)"/>
<path d="M0 0 C0 3 0 3 -2 6 C-0.68 6.33 0.64 6.66 2 7 C-0.64 7 -3.28 7 -6 7 C-6.66 5.68 -7.32 4.36 -8 3 C-6.8553125 3.0928125 -6.8553125 3.0928125 -5.6875 3.1875 C-2.95474688 3.25898085 -2.95474688 3.25898085 -1.1875 1.5 C-0.795625 1.005 -0.40375 0.51 0 0 Z " fill="#99A96A" transform="translate(47,19)"/>
<path d="M0 0 C0.99 0 1.98 0 3 0 C3.33 1.98 3.66 3.96 4 6 C2.35 6 0.7 6 -1 6 C-1.042721 4.33388095 -1.04063832 2.66617115 -1 1 C-0.67 0.67 -0.34 0.34 0 0 Z " fill="#1D2016" transform="translate(41,13)"/>
<path d="M0 0 C0 0.66 0 1.32 0 2 C-3.08888522 4.05925681 -3.70935927 4.2390374 -7.1875 4.125 C-9.0746875 4.063125 -9.0746875 4.063125 -11 4 C-11.33 3.34 -11.66 2.68 -12 2 C-10.37548581 1.66430703 -8.75037083 1.3315204 -7.125 1 C-6.22007813 0.814375 -5.31515625 0.62875 -4.3828125 0.4375 C-2 0 -2 0 0 0 Z " fill="#354227" transform="translate(53,25)"/>
<path d="M0 0 C0.33 0.99 0.66 1.98 1 3 C2.32 3 3.64 3 5 3 C5 4.32 5 5.64 5 7 C2.03824877 6.38722388 0.61941217 5.74627478 -2 4 C-1.34 2.68 -0.68 1.36 0 0 Z " fill="#323826" transform="translate(39,16)"/>
<path d="M0 0 C1.65 0.33 3.3 0.66 5 1 C4 4 4 4 0.9375 5.6875 C-0.031875 6.120625 -1.00125 6.55375 -2 7 C-2.99 6.01 -3.98 5.02 -5 4 C-3.68 4 -2.36 4 -1 4 C-0.67 2.68 -0.34 1.36 0 0 Z " fill="#718F59" transform="translate(99,18)"/>
<path d="M0 0 C0.99 0 1.98 0 3 0 C2.67 1.65 2.34 3.3 2 5 C0.35 5 -1.3 5 -3 5 C-1.125 1.125 -1.125 1.125 0 0 Z " fill="#EDF1D5" transform="translate(48,20)"/>
<path d="M0 0 C1.65 0 3.3 0 5 0 C5.33 0.99 5.66 1.98 6 3 C1.71 3 -2.58 3 -7 3 C-7 2.67 -7 2.34 -7 2 C-4.69 2 -2.38 2 0 2 C0 1.34 0 0.68 0 0 Z " fill="#3C5125" transform="translate(73,14)"/>
<path d="M0 0 C0 3 0 3 -1.3125 4.38671875 C-2.875 5.59114583 -4.4375 6.79557292 -6 8 C-6.66 7.67 -7.32 7.34 -8 7 C-4.13157895 0 -4.13157895 0 0 0 Z " fill="#324120" transform="translate(41,6)"/>
<path d="M0 0 C0.66 0 1.32 0 2 0 C3.38125018 2.76250036 3.19079306 4.94731099 3 8 C2.34 8.66 1.68 9.32 1 10 C-0.83691257 6.21812119 -1.15837626 4.05431692 0 0 Z " fill="#A6BD61" transform="translate(90,30)"/>
<path d="M0 0 C2.97 0.495 2.97 0.495 6 1 C5.67 1.66 5.34 2.32 5 3 C0.71 3 -3.58 3 -8 3 C-8 2.67 -8 2.34 -8 2 C-5.36 2 -2.72 2 0 2 C0 1.34 0 0.68 0 0 Z " fill="#92B576" transform="translate(91,17)"/>
<path d="M0 0 C0.66 0.33 1.32 0.66 2 1 C2.33 1.99 2.66 2.98 3 4 C5.31 4.33 7.62 4.66 10 5 C10 5.33 10 5.66 10 6 C2.375 7.25 2.375 7.25 -1 5 C-0.67 3.35 -0.34 1.7 0 0 Z " fill="#4C5B36" transform="translate(38,21)"/>
<path d="M0 0 C2.31 0.33 4.62 0.66 7 1 C7 2.32 7 3.64 7 5 C5.35 4.67 3.7 4.34 2 4 C2 3.34 2 2.68 2 2 C1.34 2 0.68 2 0 2 C0 1.34 0 0.68 0 0 Z " fill="#334024" transform="translate(44,5)"/>
<path d="M0 0 C1.32 0 2.64 0 4 0 C4 1.65 4 3.3 4 5 C2.68 5 1.36 5 0 5 C0 3.35 0 1.7 0 0 Z " fill="#161810" transform="translate(80,29)"/>
<path d="M0 0 C0.33 0.99 0.66 1.98 1 3 C-0.8125 5 -0.8125 5 -3 7 C-3.99 7 -4.98 7 -6 7 C-6 6.34 -6 5.68 -6 5 C-4.04072937 3.2856382 -2.04119788 1.61594832 0 0 Z " fill="#345136" transform="translate(34,91)"/>
<path d="M0 0 C0.6875 1.8125 0.6875 1.8125 1 4 C-0.375 5.75 -0.375 5.75 -2 7 C-2.33 7 -2.66 7 -3 7 C-3.1875 4.625 -3.1875 4.625 -3 2 C-2.01 1.34 -1.02 0.68 0 0 Z " fill="#96B87B" transform="translate(23,38)"/>
<path d="M0 0 C0.66 0 1.32 0 2 0 C2 0.66 2 1.32 2 2 C3.32 2 4.64 2 6 2 C6.33 2.99 6.66 3.98 7 5 C6.01 5.495 6.01 5.495 5 6 C2.375 5.0625 2.375 5.0625 0 4 C0 2.68 0 1.36 0 0 Z " fill="#212A0E" transform="translate(111,18)"/>
<path d="M0 0 C3.3 0 6.6 0 10 0 C10.33 0.66 10.66 1.32 11 2 C7.75 2.6875 7.75 2.6875 4 3 C2.68 2.01 1.36 1.02 0 0 Z " fill="#000400" transform="translate(66,12)"/>
<path d="M0 0 C0.66 0.33 1.32 0.66 2 1 C1.95875 1.78375 1.9175 2.5675 1.875 3.375 C1.71271266 6.16116119 1.71271266 6.16116119 4 8 C2.35 7.67 0.7 7.34 -1 7 C-1 4.37886292 -0.68707555 2.49064888 0 0 Z " fill="#021F02" transform="translate(17,120)"/>
<path d="M0 0 C1.98 0.495 1.98 0.495 4 1 C4 1.99 4 2.98 4 4 C2.35 4 0.7 4 -1 4 C-0.67 2.68 -0.34 1.36 0 0 Z " fill="#F8F9E9" transform="translate(86,37)"/>
<path d="M0 0 C1.9451 2.91765 2.45276317 4.62537285 3 8 C2.01 8.495 2.01 8.495 1 9 C1 8.01 1 7.02 1 6 C0.01 5.67 -0.98 5.34 -2 5 C-1.34 3.35 -0.68 1.7 0 0 Z " fill="#3C502C" transform="translate(115,103)"/>
<path d="M0 0 C1.2077558 3.62326739 0.54311128 4.64146369 -1 8 C-1.66 7.67 -2.32 7.34 -3 7 C-2.38722388 4.03824877 -1.74627478 2.61941217 0 0 Z " fill="#456444" transform="translate(50,67)"/>
<path d="M0 0 C0.33 0.66 0.66 1.32 1 2 C1.99 2.33 2.98 2.66 4 3 C3.01 3.99 2.02 4.98 1 6 C1 5.34 1 4.68 1 4 C-0.32 4.33 -1.64 4.66 -3 5 C-2.01 3.35 -1.02 1.7 0 0 Z " fill="#29401A" transform="translate(31,21)"/>
<path d="" fill="#000000" transform="translate(0,0)"/>
<path d="" fill="#000000" transform="translate(0,0)"/>
</svg>
